<mxfile host="app.diagrams.net" modified="2022-08-28T02:36:42.333Z" agent="5.0 (Macintosh; Intel Mac OS X 10_15_7) AppleWebKit/537.36 (KHTML, like Gecko) Chrome/104.0.0.0 Safari/537.36" etag="_kV0MHy6It-SXcZtLw3E" version="20.2.7" type="github">
  <diagram id="ahrnxP7dzFnDoXyZlv80" name="第 1 页">
    <mxGraphModel dx="3679" dy="255" grid="1" gridSize="10" guides="1" tooltips="1" connect="1" arrows="1" fold="1" page="1" pageScale="1" pageWidth="827" pageHeight="1169" math="0" shadow="0">
      <root>
        <mxCell id="0" />
        <mxCell id="1" parent="0" />
        <mxCell id="r_awI5zs8guKs30Cjc3F-32" value="Users" style="shape=image;html=1;verticalAlign=bottom;verticalLabelPosition=top;labelBackgroundColor=#ffffff;imageAspect=0;aspect=fixed;image=https://cdn2.iconfinder.com/data/icons/font-awesome/1792/user-128.png;fontSize=20;labelPosition=center;align=center;" vertex="1" parent="1">
          <mxGeometry x="-586" y="1930" width="100" height="100" as="geometry" />
        </mxCell>
        <mxCell id="r_awI5zs8guKs30Cjc3F-33" value="" style="edgeStyle=orthogonalEdgeStyle;rounded=0;orthogonalLoop=1;jettySize=auto;html=1;fontSize=20;strokeWidth=2;" edge="1" parent="1" target="r_awI5zs8guKs30Cjc3F-42">
          <mxGeometry relative="1" as="geometry">
            <mxPoint x="-156" y="1472.5000000000005" as="sourcePoint" />
          </mxGeometry>
        </mxCell>
        <mxCell id="r_awI5zs8guKs30Cjc3F-34" style="edgeStyle=orthogonalEdgeStyle;rounded=0;orthogonalLoop=1;jettySize=auto;html=1;fontSize=20;strokeWidth=2;" edge="1" parent="1" source="r_awI5zs8guKs30Cjc3F-35" target="r_awI5zs8guKs30Cjc3F-48">
          <mxGeometry relative="1" as="geometry" />
        </mxCell>
        <mxCell id="r_awI5zs8guKs30Cjc3F-35" value="Item&lt;br&gt;Profiles" style="whiteSpace=wrap;html=1;fontSize=20;" vertex="1" parent="1">
          <mxGeometry x="-36" y="1700" width="160" height="80" as="geometry" />
        </mxCell>
        <mxCell id="r_awI5zs8guKs30Cjc3F-36" style="edgeStyle=orthogonalEdgeStyle;rounded=0;orthogonalLoop=1;jettySize=auto;html=1;fontSize=20;strokeWidth=2;" edge="1" parent="1" source="r_awI5zs8guKs30Cjc3F-37" target="r_awI5zs8guKs30Cjc3F-48">
          <mxGeometry relative="1" as="geometry" />
        </mxCell>
        <mxCell id="r_awI5zs8guKs30Cjc3F-37" value="User&lt;br&gt;Profiles" style="whiteSpace=wrap;html=1;fontSize=20;" vertex="1" parent="1">
          <mxGeometry x="-436" y="1700" width="160" height="80" as="geometry" />
        </mxCell>
        <mxCell id="r_awI5zs8guKs30Cjc3F-38" style="edgeStyle=orthogonalEdgeStyle;rounded=0;orthogonalLoop=1;jettySize=auto;html=1;fontSize=20;strokeWidth=2;" edge="1" parent="1" source="r_awI5zs8guKs30Cjc3F-42" target="r_awI5zs8guKs30Cjc3F-35">
          <mxGeometry relative="1" as="geometry" />
        </mxCell>
        <mxCell id="r_awI5zs8guKs30Cjc3F-39" value="Item aspect term&lt;br&gt;dictionary" style="edgeLabel;html=1;align=center;verticalAlign=middle;resizable=0;points=[];fontSize=20;" vertex="1" connectable="0" parent="r_awI5zs8guKs30Cjc3F-38">
          <mxGeometry x="0.4891" y="4" relative="1" as="geometry">
            <mxPoint as="offset" />
          </mxGeometry>
        </mxCell>
        <mxCell id="r_awI5zs8guKs30Cjc3F-40" style="edgeStyle=orthogonalEdgeStyle;rounded=0;orthogonalLoop=1;jettySize=auto;html=1;entryX=0.5;entryY=0;entryDx=0;entryDy=0;fontSize=20;strokeWidth=2;" edge="1" parent="1" source="r_awI5zs8guKs30Cjc3F-42" target="r_awI5zs8guKs30Cjc3F-37">
          <mxGeometry relative="1" as="geometry" />
        </mxCell>
        <mxCell id="r_awI5zs8guKs30Cjc3F-41" value="User aspect term&lt;br&gt;dictionary" style="edgeLabel;html=1;align=center;verticalAlign=middle;resizable=0;points=[];fontSize=20;" vertex="1" connectable="0" parent="r_awI5zs8guKs30Cjc3F-40">
          <mxGeometry x="0.21" y="-1" relative="1" as="geometry">
            <mxPoint x="1" y="35" as="offset" />
          </mxGeometry>
        </mxCell>
        <mxCell id="r_awI5zs8guKs30Cjc3F-42" value="LCF-ATEPC&lt;br&gt;ABSA Model" style="whiteSpace=wrap;html=1;fontSize=20;" vertex="1" parent="1">
          <mxGeometry x="-236" y="1540" width="160" height="82.5" as="geometry" />
        </mxCell>
        <mxCell id="r_awI5zs8guKs30Cjc3F-43" value="" style="edgeStyle=orthogonalEdgeStyle;rounded=0;orthogonalLoop=1;jettySize=auto;html=1;fontSize=20;strokeWidth=2;" edge="1" parent="1" source="r_awI5zs8guKs30Cjc3F-45" target="r_awI5zs8guKs30Cjc3F-42">
          <mxGeometry relative="1" as="geometry" />
        </mxCell>
        <mxCell id="r_awI5zs8guKs30Cjc3F-44" value="Preprocessing" style="edgeLabel;html=1;align=center;verticalAlign=middle;resizable=0;points=[];fontSize=20;" vertex="1" connectable="0" parent="r_awI5zs8guKs30Cjc3F-43">
          <mxGeometry x="-0.2301" y="1" relative="1" as="geometry">
            <mxPoint x="-1" y="10" as="offset" />
          </mxGeometry>
        </mxCell>
        <mxCell id="r_awI5zs8guKs30Cjc3F-45" value="Reviews" style="whiteSpace=wrap;html=1;fontSize=20;" vertex="1" parent="1">
          <mxGeometry x="-236" y="1360" width="160" height="82.5" as="geometry" />
        </mxCell>
        <mxCell id="r_awI5zs8guKs30Cjc3F-46" style="edgeStyle=orthogonalEdgeStyle;rounded=0;orthogonalLoop=1;jettySize=auto;html=1;entryX=1;entryY=0.5;entryDx=0;entryDy=0;fontSize=20;strokeWidth=2;" edge="1" parent="1" source="r_awI5zs8guKs30Cjc3F-48" target="r_awI5zs8guKs30Cjc3F-32">
          <mxGeometry relative="1" as="geometry" />
        </mxCell>
        <mxCell id="r_awI5zs8guKs30Cjc3F-47" value="Recommendations" style="edgeLabel;html=1;align=center;verticalAlign=middle;resizable=0;points=[];fontSize=20;" vertex="1" connectable="0" parent="r_awI5zs8guKs30Cjc3F-46">
          <mxGeometry x="0.4023" y="1" relative="1" as="geometry">
            <mxPoint x="57" y="-1" as="offset" />
          </mxGeometry>
        </mxCell>
        <mxCell id="r_awI5zs8guKs30Cjc3F-48" value="Recommendation System" style="whiteSpace=wrap;html=1;fontSize=20;" vertex="1" parent="1">
          <mxGeometry x="-246" y="1940" width="180" height="82.5" as="geometry" />
        </mxCell>
        <mxCell id="r_awI5zs8guKs30Cjc3F-49" style="edgeStyle=orthogonalEdgeStyle;rounded=0;orthogonalLoop=1;jettySize=auto;html=1;entryX=0.5;entryY=0;entryDx=0;entryDy=0;fontSize=20;strokeWidth=2;exitX=0.5;exitY=1;exitDx=0;exitDy=0;" edge="1" parent="1" source="r_awI5zs8guKs30Cjc3F-50" target="r_awI5zs8guKs30Cjc3F-48">
          <mxGeometry relative="1" as="geometry" />
        </mxCell>
        <mxCell id="r_awI5zs8guKs30Cjc3F-50" value="Argumentation from aspect-based polling and satisfaction ranking" style="whiteSpace=wrap;html=1;fontSize=20;spacing=5;" vertex="1" parent="1">
          <mxGeometry x="184" y="1590" width="230" height="130" as="geometry" />
        </mxCell>
        <mxCell id="r_awI5zs8guKs30Cjc3F-51" style="edgeStyle=orthogonalEdgeStyle;rounded=0;orthogonalLoop=1;jettySize=auto;html=1;entryX=0.5;entryY=0;entryDx=0;entryDy=0;fontSize=20;strokeWidth=2;exitX=1;exitY=0.5;exitDx=0;exitDy=0;" edge="1" parent="1" source="r_awI5zs8guKs30Cjc3F-52" target="r_awI5zs8guKs30Cjc3F-50">
          <mxGeometry relative="1" as="geometry" />
        </mxCell>
        <mxCell id="r_awI5zs8guKs30Cjc3F-52" value="The Toulmin model of argumentation" style="whiteSpace=wrap;html=1;fontSize=20;" vertex="1" parent="1">
          <mxGeometry x="-36" y="1330" width="230" height="60" as="geometry" />
        </mxCell>
        <mxCell id="r_awI5zs8guKs30Cjc3F-53" style="edgeStyle=orthogonalEdgeStyle;rounded=0;orthogonalLoop=1;jettySize=auto;html=1;fontSize=20;strokeWidth=2;exitX=1;exitY=0.5;exitDx=0;exitDy=0;" edge="1" parent="1" source="r_awI5zs8guKs30Cjc3F-54" target="r_awI5zs8guKs30Cjc3F-50">
          <mxGeometry relative="1" as="geometry" />
        </mxCell>
        <mxCell id="r_awI5zs8guKs30Cjc3F-54" value="Argument from popular opinion" style="whiteSpace=wrap;html=1;fontSize=20;" vertex="1" parent="1">
          <mxGeometry x="-36" y="1490" width="230" height="60" as="geometry" />
        </mxCell>
        <mxCell id="r_awI5zs8guKs30Cjc3F-55" style="edgeStyle=orthogonalEdgeStyle;rounded=0;orthogonalLoop=1;jettySize=auto;html=1;fontSize=20;strokeWidth=2;exitX=1;exitY=0.5;exitDx=0;exitDy=0;" edge="1" parent="1" source="r_awI5zs8guKs30Cjc3F-56" target="r_awI5zs8guKs30Cjc3F-50">
          <mxGeometry relative="1" as="geometry" />
        </mxCell>
        <mxCell id="r_awI5zs8guKs30Cjc3F-56" value="Expert opinion ad populum argument" style="whiteSpace=wrap;html=1;fontSize=20;" vertex="1" parent="1">
          <mxGeometry x="-36" y="1410" width="230" height="60" as="geometry" />
        </mxCell>
        <mxCell id="r_awI5zs8guKs30Cjc3F-57" value="" style="edgeStyle=orthogonalEdgeStyle;rounded=0;orthogonalLoop=1;jettySize=auto;html=1;strokeWidth=2;" edge="1" parent="1" source="r_awI5zs8guKs30Cjc3F-58" target="r_awI5zs8guKs30Cjc3F-62">
          <mxGeometry relative="1" as="geometry" />
        </mxCell>
        <mxCell id="r_awI5zs8guKs30Cjc3F-58" value="concern" style="whiteSpace=wrap;html=1;fontSize=20;" vertex="1" parent="1">
          <mxGeometry x="219" y="1860" width="130" height="80" as="geometry" />
        </mxCell>
        <mxCell id="r_awI5zs8guKs30Cjc3F-59" style="edgeStyle=orthogonalEdgeStyle;rounded=0;orthogonalLoop=1;jettySize=auto;html=1;strokeWidth=2;" edge="1" parent="1" source="r_awI5zs8guKs30Cjc3F-60" target="r_awI5zs8guKs30Cjc3F-62">
          <mxGeometry relative="1" as="geometry" />
        </mxCell>
        <mxCell id="r_awI5zs8guKs30Cjc3F-60" value="requirement" style="whiteSpace=wrap;html=1;fontSize=20;" vertex="1" parent="1">
          <mxGeometry x="219" y="2020" width="130" height="80" as="geometry" />
        </mxCell>
        <mxCell id="r_awI5zs8guKs30Cjc3F-61" value="" style="edgeStyle=orthogonalEdgeStyle;rounded=0;orthogonalLoop=1;jettySize=auto;html=1;strokeWidth=2;" edge="1" parent="1" source="r_awI5zs8guKs30Cjc3F-62" target="r_awI5zs8guKs30Cjc3F-48">
          <mxGeometry relative="1" as="geometry" />
        </mxCell>
        <mxCell id="r_awI5zs8guKs30Cjc3F-62" value="satisfaction" style="whiteSpace=wrap;html=1;fontSize=20;" vertex="1" parent="1">
          <mxGeometry x="4" y="1940" width="130" height="80" as="geometry" />
        </mxCell>
      </root>
    </mxGraphModel>
  </diagram>
</mxfile>
